<svg width="24" height="24" viewBox="0 0 24 24" fill="none" xmlns="http://www.w3.org/2000/svg">
    <path d="m13.085 12.179 6.354-6.486a.778.778 0 0 0 .321-.582.766.766 0 0 0-.25-.614.789.789 0 0 0-.64-.2.792.792 0 0 0-.564.361l-6.322 6.373-6.29-6.424a.78.78 0 0 0-.563-.362.796.796 0 0 0-.64.2.776.776 0 0 0-.251.615.768.768 0 0 0 .321.581l6.375 6.538-6.29 6.258a.77.77 0 0 0 0 1.097.813.813 0 0 0 .555.228c.186-.02.36-.1.493-.228l6.29-6.207 6.29 6.207c.15.142.349.223.556.228a.813.813 0 0 0 .556-.228.77.77 0 0 0 0-1.096l-6.3-6.259z" fill="#2C2C2C"/>
</svg>
