<svg width="25" height="24" viewBox="0 0 25 24" fill="none" xmlns="http://www.w3.org/2000/svg">
    <path fill-rule="evenodd" clip-rule="evenodd" d="M12.667 3.683a8.135 8.135 0 0 0-5.884 13.753.75.75 0 0 1 .167.76l-.764 2.238 3.37-.94a.75.75 0 0 1 .447.014 8.135 8.135 0 1 0 2.664-15.825zM3.03 11.818a9.635 9.635 0 0 1 9.636-9.635 9.635 9.635 0 0 1 9.635 9.635c0 5.322-4.314 9.636-9.635 9.636A9.63 9.63 0 0 1 9.739 21l-4.521 1.26a.75.75 0 0 1-.912-.965l1.081-3.165a9.6 9.6 0 0 1-2.356-6.313z" fill="#2C2C2C"/>
</svg>
