<svg width="25" height="24" viewBox="0 0 25 24" fill="none" xmlns="http://www.w3.org/2000/svg">
    <path fill-rule="evenodd" clip-rule="evenodd" d="M3.398 13.451a.75.75 0 0 1 .75.75v5.049h16.313v-5.049a.75.75 0 1 1 1.5 0V20a.75.75 0 0 1-.75.75H3.398a.75.75 0 0 1-.75-.75v-5.799a.75.75 0 0 1 .75-.75z" fill="#2C2C2C"/>
    <path fill-rule="evenodd" clip-rule="evenodd" d="M13.095 3.715a.75.75 0 0 0-1.5 0v8.894L8.48 9.493a.75.75 0 1 0-1.061 1.06l4.384 4.385a.747.747 0 0 0 .542.22c.25 0 .472-.121.608-.31l4.295-4.294a.75.75 0 0 0-1.06-1.06l-3.093 3.09v-8.87z" fill="#2C2C2C"/>
</svg>
