<svg width="24" height="24" viewBox="0 0 24 24" fill="none" xmlns="http://www.w3.org/2000/svg">
    <path fill-rule="evenodd" clip-rule="evenodd" d="M11.995 4.65c.367-.372.903-.84 1.588-1.231 1.426-.816 3.487-1.284 5.89.057 2.213 1.21 3.241 3.178 3.23 5.344-.01 2.125-1.015 4.377-2.71 6.296l-.014.015a35.877 35.877 0 0 1-7.595 6.177.75.75 0 0 1-.78 0 35.878 35.878 0 0 1-7.613-6.197c-1.692-1.949-2.695-4.216-2.706-6.347C1.275 6.589 2.303 4.62 4.52 3.41c2.406-1.309 4.466-.82 5.889.002a7.569 7.569 0 0 1 1.586 1.238z" fill="#000"/>
</svg>
