<svg width="84" height="22" viewBox="0 0 84 22" fill="none" xmlns="http://www.w3.org/2000/svg">
    <path d="M13.681 8.57c.24-.95.43-1.936.57-2.958.155-1.022.247-1.993.275-2.914-.535 0-1.12.014-1.753.043-.634.014-1.268.036-1.901.065-.634.014-1.24.036-1.817.064-.577.03-1.084.05-1.52.065a37.16 37.16 0 0 1-.782.043c-.296.015-.613.036-.951.065-.324.015-.648.043-.972.087-.31.028-.591.064-.845.107l-.739-1.381c.563.072 1.127.13 1.69.173.577.043 1.091.064 1.542.064.76 0 1.563-.007 2.408-.021a74.574 74.574 0 0 0 2.556-.087c.845-.043 1.662-.093 2.45-.15a25.559 25.559 0 0 0 2.176-.281l.402.388a33.739 33.739 0 0 1-.36 1.684 45.064 45.064 0 0 1-.422 1.749c-.14.575-.296 1.137-.465 1.683a19.111 19.111 0 0 1-.528 1.468 68.07 68.07 0 0 0 2.704-.172c.86-.087 1.669-.187 2.43-.303l-.212 1.425a63.77 63.77 0 0 0-2.091-.065l-2.662-.043c-.394 0-.901.007-1.52.022-.62 0-1.296.007-2.029.021-.718.015-1.457.036-2.218.065a95.79 95.79 0 0 0-2.175.065c-.69.029-1.31.057-1.86.086-.549.015-.964.03-1.246.043a63.25 63.25 0 0 0-1.647.108c-.535.044-1.064.101-1.585.173l-.549-1.49c.662.073 1.289.13 1.88.173.592.03 1.218.058 1.88.087.31.014.711.021 1.204.021h1.606a76.544 76.544 0 0 1 1.859-.021l1.9-.044c.634-.028 1.233-.05 1.796-.064.578-.015 1.085-.03 1.521-.043zm.444 4.403a36.406 36.406 0 0 0-1.415-.021 82.9 82.9 0 0 0-3.697.086c-.592.014-1.07.036-1.437.065-.155.014-.352.029-.591.043a17.2 17.2 0 0 0-.74.065 8.388 8.388 0 0 0-.823.086c-.282.029-.557.065-.824.108l-.74-1.317c.324.072.761.137 1.31.195.55.043 1.05.064 1.5.064h1.965c.774 0 1.584-.007 2.429-.021l2.535-.087a71.915 71.915 0 0 0 2.302-.15c-.042.129-.091.33-.148.604-.042.273-.084.54-.126.798l-.338 2.16c.126-.015.232-.022.316-.022.1 0 .19-.008.275-.022l-.105 1.036a49.74 49.74 0 0 0-2.62-.065c-.93 0-1.83.015-2.704.044-.859.014-1.64.035-2.345.064-.704.03-1.232.05-1.584.065-.014.13-.028.273-.042.432V19.126c0 .259.056.424.169.496.113.087.352.137.718.151a56.006 56.006 0 0 0 4.605-.108c.915-.043 1.803-.1 2.662-.172a27.67 27.67 0 0 0 2.218-.26l-.296 1.339c-.789-.029-1.655-.05-2.598-.065-.944 0-1.894.007-2.852.022-.957.014-1.88.036-2.767.065-.873.028-1.634.057-2.282.086-.366.029-.633-.065-.802-.28-.155-.202-.233-.468-.233-.8v-1.64c0-.274-.02-.497-.063-.67a.798.798 0 0 0-.211-.453 1.093 1.093 0 0 0-.444-.323 10.615 10.615 0 0 0-.803-.303l.233-.474c.76.086 1.584.143 2.471.172.902.029 1.81.043 2.725.043.916-.014 1.81-.036 2.683-.064.887-.044 1.704-.087 2.45-.13l.064-2.785zM40.46 11.915c0 .332-.007.684-.021 1.058-.014.36-.042.727-.084 1.101a21.209 21.209 0 0 1-.233 1.9l-.93.151a7.376 7.376 0 0 1-.063-.712c-.014-.288-.035-.59-.063-.907l-.042-.993V2.957c0-.49-.212-.878-.634-1.166-.422-.302-1.084-.561-1.986-.777l.233-.583c.704.087 1.415.202 2.133.346.718.13 1.352.251 1.901.367-.056.259-.105.554-.148.885-.042.33-.063.64-.063.928v5.699c.578-.029 1.232-.08 1.965-.151a68.66 68.66 0 0 0 2.239-.302l-.211 1.316c-.296-.014-.62-.021-.972-.021h-1.056c-.352 0-.697.007-1.035.021h-.93v2.396zm1.352 8.42a164.003 164.003 0 0 0-5.239 0c-.83.014-1.626.035-2.387.064-.76.03-1.457.065-2.09.108-.395.029-.677-.057-.846-.259a1.022 1.022 0 0 1-.253-.712v-2.224c0-.33-.021-.597-.064-.798a.88.88 0 0 0-.232-.518c-.127-.144-.317-.26-.57-.346-.24-.1-.57-.209-.993-.324l.253-.54c.212.03.45.058.718.087.268.029.543.065.824.108.296.029.578.065.845.108.282.029.528.057.74.086-.029.187-.057.432-.085.734-.014.302-.021.59-.021.864v2.072c0 .317.07.518.211.604.141.101.416.159.824.173.55.015 1.19.007 1.922-.021a64.86 64.86 0 0 0 4.584-.346 30.996 30.996 0 0 0 2.091-.259l-.232 1.338zm-6.337-10.082c0 .475-.113.921-.338 1.339a3.306 3.306 0 0 1-.887 1.057c-.38.303-.831.54-1.352.713a5.079 5.079 0 0 1-1.648.259 5.202 5.202 0 0 1-1.648-.26 4.78 4.78 0 0 1-1.33-.733 3.571 3.571 0 0 1-.909-1.058 2.878 2.878 0 0 1-.316-1.317c0-.503.105-.964.316-1.381a3.48 3.48 0 0 1 .909-1.08 4.06 4.06 0 0 1 1.33-.69 5.202 5.202 0 0 1 1.648-.26c.62 0 1.19.094 1.711.281a4.16 4.16 0 0 1 1.331.756c.38.302.669.662.866 1.08.211.416.317.848.317 1.294zm-6.865-.086c0 .36.063.705.19 1.036.14.317.324.597.549.842.24.245.521.439.845.583.338.144.697.216 1.077.216s.733-.072 1.056-.216a2.91 2.91 0 0 0 .845-.561c.24-.245.423-.526.55-.842.14-.331.21-.684.21-1.058 0-.345-.063-.676-.19-.993a2.544 2.544 0 0 0-.548-.842 2.417 2.417 0 0 0-.845-.583 2.624 2.624 0 0 0-1.078-.216c-.38 0-.732.065-1.056.195a2.43 2.43 0 0 0-.845.56c-.24.231-.43.505-.57.821-.127.317-.19.67-.19 1.058zm8.407-4.663h-1.183c-.465 0-.965.007-1.5.022a1205.043 1205.043 0 0 1-3.295.086c-.521.014-1.007.029-1.458.043-.45.015-.823.029-1.12.043-.168.015-.38.03-.633.044-.253.014-.514.036-.781.064a13.224 13.224 0 0 0-1.416.151l-.655-1.338c.409.072.88.13 1.416.173.535.043 1.006.065 1.415.065.324 0 .718-.008 1.183-.022.479-.014.993-.029 1.542-.043a80.02 80.02 0 0 0 3.549-.173 49.522 49.522 0 0 0 1.69-.151 15.33 15.33 0 0 0 1.457-.216l-.211 1.252zm-3.148-2.482a19.213 19.213 0 0 0-1.563.021c-.549.015-1.014.022-1.394.022a5 5 0 0 0-.401.021c-.155 0-.331.008-.528.022-.198 0-.402.014-.613.043a6.79 6.79 0 0 0-.591.065l-.634-1.274c.338.072.725.144 1.162.216.45.072.894.108 1.33.108.353 0 .852-.022 1.5-.065.662-.057 1.324-.13 1.986-.216l-.253 1.037zM55.206 7.814a29.115 29.115 0 0 0 3.485 1.49 42 42 0 0 0 3.802 1.1l-1.267 1.274c-.423-.23-.93-.49-1.521-.777a109.35 109.35 0 0 0-1.817-.907 42.313 42.313 0 0 0-1.837-.885 98.82 98.82 0 0 0-1.585-.755 24.378 24.378 0 0 1-3.908 2.353 33.528 33.528 0 0 1-4.077 1.64l-.443-.431A29.358 29.358 0 0 0 52.12 8.72a22.472 22.472 0 0 0 5.07-4.793c-.422 0-.894.015-1.415.043-.507.015-1.021.036-1.542.065-.507.015-1.007.036-1.5.065-.479.029-.901.043-1.267.043-.155 0-.36.007-.613.022a18.856 18.856 0 0 0-1.627.172c-.281.03-.542.065-.781.108l-.824-1.338c.183.029.394.058.634.086.24.03.486.058.74.087l.802.043H52.438a65.099 65.099 0 0 0 2.303-.087c.803-.043 1.591-.093 2.366-.15a22.154 22.154 0 0 0 2.07-.281l.507.496a25.357 25.357 0 0 1-2.134 2.44 24.588 24.588 0 0 1-2.344 2.072zm.253 9.045c.648-.029 1.24-.05 1.774-.065.55-.014.993-.029 1.331-.043a51.379 51.379 0 0 0 5.239-.497l-.211 1.425a42.113 42.113 0 0 0-2.092-.043c-.816-.014-1.704-.029-2.661-.043-.395 0-.887.007-1.479.021-.577 0-1.204.015-1.88.044-.662.014-1.345.036-2.049.064a81.09 81.09 0 0 0-2.007.065 53.71 53.71 0 0 0-1.732.065c-.507.029-.901.05-1.183.065-.535.028-1.077.064-1.626.108-.536.029-1.064.079-1.585.15l-.549-1.489c.648.072 1.268.13 1.86.173.605.029 1.231.058 1.88.086.28.015.626.022 1.034.022h1.373c.493 0 1.007-.007 1.542-.022l1.606-.043v-3.108a1.83 1.83 0 0 0-.085-.605.764.764 0 0 0-.317-.388 1.641 1.641 0 0 0-.57-.281 5.433 5.433 0 0 0-.908-.173l.21-.561c.48-.014 1.008.007 1.585.065.592.043 1.162.1 1.711.172-.056.26-.105.54-.148.842a5.93 5.93 0 0 0-.063.864v3.13zM79.71 8.937c0 .259-.014.56-.042.906-.014.331-.042.67-.085 1.015-.028.33-.063.647-.105.95a5.944 5.944 0 0 1-.106.712l-.95.13a15.313 15.313 0 0 1-.106-1.188c-.028-.49-.042-.935-.042-1.338V2.957c0-.49-.219-.878-.655-1.166-.423-.302-1.085-.561-1.986-.777l.254-.583a28.54 28.54 0 0 1 2.133.346c.718.13 1.352.251 1.901.367a10.39 10.39 0 0 0-.148.885c-.042.33-.063.64-.063.928v4.36a29.508 29.508 0 0 0 1.965-.172 68.757 68.757 0 0 0 2.239-.302l-.212 1.338a20.1 20.1 0 0 0-.971-.022h-1.056c-.352 0-.697.008-1.035.022h-.93v.756zm-10.013 4.921c.733 0 1.556-.007 2.472-.021.93-.029 1.852-.065 2.767-.108.93-.043 1.81-.094 2.64-.151.832-.058 1.522-.115 2.07-.173-.027.187-.049.345-.063.475 0 .115-.007.223-.02.324-.015.086-.022.18-.022.28v3.476c0 .216-.014.468-.042.755-.014.274-.035.547-.063.82-.029.289-.07.555-.127.8-.043.259-.085.46-.127.604l-.93.173c-.042-.36-.084-.8-.126-1.317a24.24 24.24 0 0 1-.042-1.339V14.42a39.87 39.87 0 0 0-1.86 0c-.675 0-1.372.021-2.09.064-.705.03-1.402.065-2.092.108-.676.043-1.296.087-1.859.13-.45.029-.852.065-1.204.108s-.76.1-1.225.172l-.634-1.36c.409.072.831.13 1.268.173.45.029.887.043 1.31.043zm5.155-10.642c-.338 1.065-.867 2.13-1.585 3.195a23.15 23.15 0 0 1-2.45 3 21.604 21.604 0 0 1-2.957 2.526c-1.057.748-2.092 1.338-3.106 1.77l-.401-.453a19.815 19.815 0 0 0 2.64-1.727 20.646 20.646 0 0 0 2.388-2.202A19.424 19.424 0 0 0 71.365 6.8a14.606 14.606 0 0 0 1.394-2.72c-.31 0-.654.008-1.035.022-.366 0-.725.007-1.077.022-.352.014-.676.028-.972.043-.281.014-.493.029-.633.043-.141.014-.339.029-.592.043-.24.014-.5.036-.781.065-.268.029-.543.065-.824.108a4.63 4.63 0 0 0-.719.13l-.844-1.382c.154.029.352.057.59.086.254.014.515.036.782.065l.824.043c.282.014.543.022.782.022.591 0 1.197-.015 1.817-.044a51.11 51.11 0 0 0 1.732-.108c.549-.043 1.042-.093 1.478-.15a8.561 8.561 0 0 0 1.014-.217l.55.346zM23.86 17.978a17.763 17.763 0 0 1-.779 2.314 26.97 26.97 0 0 1-.462 1.134h-.937c.096-.373.187-.776.274-1.208a28.594 28.594 0 0 0 .447-2.402h1.355l.101.162z" fill="#2C2C2C"/>
</svg>
