<svg width="24" height="24" viewBox="0 0 24 24" fill="none" xmlns="http://www.w3.org/2000/svg">
    <path fill-rule="evenodd" clip-rule="evenodd" d="M3.094 13.451a.75.75 0 0 1 .75.75v5.049h16.312v-5.049a.75.75 0 0 1 1.5 0V20a.75.75 0 0 1-.75.75H3.094a.75.75 0 0 1-.75-.75v-5.799a.75.75 0 0 1 .75-.75z" fill="#2C2C2C"/>
    <path fill-rule="evenodd" clip-rule="evenodd" d="M11.24 14.412a.75.75 0 1 0 1.5 0V5.515l3.116 3.117a.75.75 0 0 0 1.061-1.06l-4.386-4.387a.747.747 0 0 0-.542-.22.75.75 0 0 0-.607.31L7.085 7.57a.75.75 0 0 0 1.06 1.06l3.094-3.093v8.874z" fill="#2C2C2C"/>
</svg>
